<svg id="visual" viewBox="0 0 960 540" width="960" height="540" xmlns="http://www.w3.org/2000/svg" xmlns:xlink="http://www.w3.org/1999/xlink" version="1.1"><path d="M0 412L20 404.3C40 396.7 80 381.3 120 362.5C160 343.7 200 321.3 240 329.5C280 337.7 320 376.3 360 395.5C400 414.7 440 414.3 480 409.3C520 404.3 560 394.7 600 385.7C640 376.7 680 368.3 720 362C760 355.7 800 351.3 840 359.8C880 368.3 920 389.7 940 400.3L960 411L960 541L940 541C920 541 880 541 840 541C800 541 760 541 720 541C680 541 640 541 600 541C560 541 520 541 480 541C440 541 400 541 360 541C320 541 280 541 240 541C200 541 160 541 120 541C80 541 40 541 20 541L0 541Z" fill="#214b4e" stroke-linecap="round" stroke-linejoin="miter"></path></svg>