<svg id="visual" viewBox="0 0 960 540" width="960" height="540" xmlns="http://www.w3.org/2000/svg" xmlns:xlink="http://www.w3.org/1999/xlink" version="1.1"><path d="M0 409L26.7 425.7C53.3 442.3 106.7 475.7 160 476.2C213.3 476.7 266.7 444.3 320 429.8C373.3 415.3 426.7 418.7 480 435.3C533.3 452 586.7 482 640 483.7C693.3 485.3 746.7 458.7 800 446.7C853.3 434.7 906.7 437.3 933.3 438.7L960 440L960 541L933.3 541C906.7 541 853.3 541 800 541C746.7 541 693.3 541 640 541C586.7 541 533.3 541 480 541C426.7 541 373.3 541 320 541C266.7 541 213.3 541 160 541C106.7 541 53.3 541 26.7 541L0 541Z" fill="#214b4e" stroke-linecap="round" stroke-linejoin="miter"></path></svg>